%TF.GenerationSoftware,KiCad,Pcbnew,(5.1.9)-1*%
%TF.CreationDate,2021-01-14T15:41:35-05:00*%
%TF.ProjectId,TI59_battery,54493539-5f62-4617-9474-6572792e6b69,1*%
%TF.SameCoordinates,Original*%
%TF.FileFunction,Soldermask,Bot*%
%TF.FilePolarity,Negative*%
%FSLAX46Y46*%
G04 Gerber Fmt 4.6, Leading zero omitted, Abs format (unit mm)*
G04 Created by KiCad (PCBNEW (5.1.9)-1) date 2021-01-14 15:41:35*
%MOMM*%
%LPD*%
G01*
G04 APERTURE LIST*
%ADD10C,1.550000*%
%ADD11O,2.000000X1.300000*%
%ADD12C,2.100000*%
%ADD13C,1.600000*%
%ADD14O,1.850000X1.300000*%
G04 APERTURE END LIST*
%TO.C,J1*%
G36*
G01*
X166687500Y-104450000D02*
X168587500Y-104450000D01*
G75*
G02*
X168637500Y-104500000I0J-50000D01*
G01*
X168637500Y-106000000D01*
G75*
G02*
X168587500Y-106050000I-50000J0D01*
G01*
X166687500Y-106050000D01*
G75*
G02*
X166637500Y-106000000I0J50000D01*
G01*
X166637500Y-104500000D01*
G75*
G02*
X166687500Y-104450000I50000J0D01*
G01*
G37*
D10*
X164937500Y-101750000D03*
G36*
G01*
X164137500Y-103350000D02*
X165737500Y-103350000D01*
G75*
G02*
X165787500Y-103400000I0J-50000D01*
G01*
X165787500Y-103800000D01*
G75*
G02*
X165737500Y-103850000I-50000J0D01*
G01*
X164137500Y-103850000D01*
G75*
G02*
X164087500Y-103800000I0J50000D01*
G01*
X164087500Y-103400000D01*
G75*
G02*
X164137500Y-103350000I50000J0D01*
G01*
G37*
G36*
G01*
X164137500Y-102700000D02*
X165737500Y-102700000D01*
G75*
G02*
X165787500Y-102750000I0J-50000D01*
G01*
X165787500Y-103150000D01*
G75*
G02*
X165737500Y-103200000I-50000J0D01*
G01*
X164137500Y-103200000D01*
G75*
G02*
X164087500Y-103150000I0J50000D01*
G01*
X164087500Y-102750000D01*
G75*
G02*
X164137500Y-102700000I50000J0D01*
G01*
G37*
G36*
G01*
X164137500Y-105300000D02*
X165737500Y-105300000D01*
G75*
G02*
X165787500Y-105350000I0J-50000D01*
G01*
X165787500Y-105750000D01*
G75*
G02*
X165737500Y-105800000I-50000J0D01*
G01*
X164137500Y-105800000D01*
G75*
G02*
X164087500Y-105750000I0J50000D01*
G01*
X164087500Y-105350000D01*
G75*
G02*
X164137500Y-105300000I50000J0D01*
G01*
G37*
G36*
G01*
X164137500Y-104650000D02*
X165737500Y-104650000D01*
G75*
G02*
X165787500Y-104700000I0J-50000D01*
G01*
X165787500Y-105100000D01*
G75*
G02*
X165737500Y-105150000I-50000J0D01*
G01*
X164137500Y-105150000D01*
G75*
G02*
X164087500Y-105100000I0J50000D01*
G01*
X164087500Y-104700000D01*
G75*
G02*
X164137500Y-104650000I50000J0D01*
G01*
G37*
G36*
G01*
X164137500Y-104000000D02*
X165737500Y-104000000D01*
G75*
G02*
X165787500Y-104050000I0J-50000D01*
G01*
X165787500Y-104450000D01*
G75*
G02*
X165737500Y-104500000I-50000J0D01*
G01*
X164137500Y-104500000D01*
G75*
G02*
X164087500Y-104450000I0J50000D01*
G01*
X164087500Y-104050000D01*
G75*
G02*
X164137500Y-104000000I50000J0D01*
G01*
G37*
X164937500Y-106750000D03*
G36*
G01*
X166687500Y-102450000D02*
X168587500Y-102450000D01*
G75*
G02*
X168637500Y-102500000I0J-50000D01*
G01*
X168637500Y-104000000D01*
G75*
G02*
X168587500Y-104050000I-50000J0D01*
G01*
X166687500Y-104050000D01*
G75*
G02*
X166637500Y-104000000I0J50000D01*
G01*
X166637500Y-102500000D01*
G75*
G02*
X166687500Y-102450000I50000J0D01*
G01*
G37*
D11*
X167637500Y-100750000D03*
X167637500Y-107750000D03*
G36*
G01*
X166687500Y-106500000D02*
X168587500Y-106500000D01*
G75*
G02*
X168637500Y-106550000I0J-50000D01*
G01*
X168637500Y-107750000D01*
G75*
G02*
X168587500Y-107800000I-50000J0D01*
G01*
X166687500Y-107800000D01*
G75*
G02*
X166637500Y-107750000I0J50000D01*
G01*
X166637500Y-106550000D01*
G75*
G02*
X166687500Y-106500000I50000J0D01*
G01*
G37*
G36*
G01*
X166687500Y-100700000D02*
X168587500Y-100700000D01*
G75*
G02*
X168637500Y-100750000I0J-50000D01*
G01*
X168637500Y-101950000D01*
G75*
G02*
X168587500Y-102000000I-50000J0D01*
G01*
X166687500Y-102000000D01*
G75*
G02*
X166637500Y-101950000I0J50000D01*
G01*
X166637500Y-100750000D01*
G75*
G02*
X166687500Y-100700000I50000J0D01*
G01*
G37*
%TD*%
%TO.C,R1*%
G36*
G01*
X120400000Y-106770832D02*
X120400000Y-107729168D01*
G75*
G02*
X120129168Y-108000000I-270832J0D01*
G01*
X119370832Y-108000000D01*
G75*
G02*
X119100000Y-107729168I0J270832D01*
G01*
X119100000Y-106770832D01*
G75*
G02*
X119370832Y-106500000I270832J0D01*
G01*
X120129168Y-106500000D01*
G75*
G02*
X120400000Y-106770832I0J-270832D01*
G01*
G37*
G36*
G01*
X122400000Y-106770832D02*
X122400000Y-107729168D01*
G75*
G02*
X122129168Y-108000000I-270832J0D01*
G01*
X121370832Y-108000000D01*
G75*
G02*
X121100000Y-107729168I0J270832D01*
G01*
X121100000Y-106770832D01*
G75*
G02*
X121370832Y-106500000I270832J0D01*
G01*
X122129168Y-106500000D01*
G75*
G02*
X122400000Y-106770832I0J-270832D01*
G01*
G37*
%TD*%
%TO.C,C1*%
G36*
G01*
X120350000Y-103746276D02*
X120350000Y-104753724D01*
G75*
G02*
X120078724Y-105025000I-271276J0D01*
G01*
X119346276Y-105025000D01*
G75*
G02*
X119075000Y-104753724I0J271276D01*
G01*
X119075000Y-103746276D01*
G75*
G02*
X119346276Y-103475000I271276J0D01*
G01*
X120078724Y-103475000D01*
G75*
G02*
X120350000Y-103746276I0J-271276D01*
G01*
G37*
G36*
G01*
X122425000Y-103746276D02*
X122425000Y-104753724D01*
G75*
G02*
X122153724Y-105025000I-271276J0D01*
G01*
X121421276Y-105025000D01*
G75*
G02*
X121150000Y-104753724I0J271276D01*
G01*
X121150000Y-103746276D01*
G75*
G02*
X121421276Y-103475000I271276J0D01*
G01*
X122153724Y-103475000D01*
G75*
G02*
X122425000Y-103746276I0J-271276D01*
G01*
G37*
%TD*%
%TO.C,C2*%
G36*
G01*
X120350000Y-95896276D02*
X120350000Y-96903724D01*
G75*
G02*
X120078724Y-97175000I-271276J0D01*
G01*
X119346276Y-97175000D01*
G75*
G02*
X119075000Y-96903724I0J271276D01*
G01*
X119075000Y-95896276D01*
G75*
G02*
X119346276Y-95625000I271276J0D01*
G01*
X120078724Y-95625000D01*
G75*
G02*
X120350000Y-95896276I0J-271276D01*
G01*
G37*
G36*
G01*
X122425000Y-95896276D02*
X122425000Y-96903724D01*
G75*
G02*
X122153724Y-97175000I-271276J0D01*
G01*
X121421276Y-97175000D01*
G75*
G02*
X121150000Y-96903724I0J271276D01*
G01*
X121150000Y-95896276D01*
G75*
G02*
X121421276Y-95625000I271276J0D01*
G01*
X122153724Y-95625000D01*
G75*
G02*
X122425000Y-95896276I0J-271276D01*
G01*
G37*
%TD*%
D12*
%TO.C,H1*%
X167050000Y-112750000D03*
%TD*%
%TO.C,H2*%
X120250000Y-87250000D03*
%TD*%
D13*
%TO.C,TP1*%
X126250000Y-103500000D03*
%TD*%
%TO.C,TP2*%
X162750000Y-87250000D03*
%TD*%
%TO.C,Z1*%
G36*
G01*
X166900000Y-91600000D02*
X166900000Y-90400000D01*
G75*
G02*
X166950000Y-90350000I50000J0D01*
G01*
X167850000Y-90350000D01*
G75*
G02*
X167900000Y-90400000I0J-50000D01*
G01*
X167900000Y-91600000D01*
G75*
G02*
X167850000Y-91650000I-50000J0D01*
G01*
X166950000Y-91650000D01*
G75*
G02*
X166900000Y-91600000I0J50000D01*
G01*
G37*
G36*
G01*
X163600000Y-91600000D02*
X163600000Y-90400000D01*
G75*
G02*
X163650000Y-90350000I50000J0D01*
G01*
X164550000Y-90350000D01*
G75*
G02*
X164600000Y-90400000I0J-50000D01*
G01*
X164600000Y-91600000D01*
G75*
G02*
X164550000Y-91650000I-50000J0D01*
G01*
X163650000Y-91650000D01*
G75*
G02*
X163600000Y-91600000I0J50000D01*
G01*
G37*
%TD*%
%TO.C,J2*%
G36*
G01*
X166654168Y-97650000D02*
X165345832Y-97650000D01*
G75*
G02*
X165075000Y-97379168I0J270832D01*
G01*
X165075000Y-96620832D01*
G75*
G02*
X165345832Y-96350000I270832J0D01*
G01*
X166654168Y-96350000D01*
G75*
G02*
X166925000Y-96620832I0J-270832D01*
G01*
X166925000Y-97379168D01*
G75*
G02*
X166654168Y-97650000I-270832J0D01*
G01*
G37*
D14*
X166000000Y-95000000D03*
%TD*%
D12*
%TO.C,H3*%
X120250000Y-112750000D03*
%TD*%
%TO.C,H4*%
X167050000Y-87250000D03*
%TD*%
%TO.C,R2*%
G36*
G01*
X121150000Y-109728262D02*
X121150000Y-108771738D01*
G75*
G02*
X121421738Y-108500000I271738J0D01*
G01*
X122128262Y-108500000D01*
G75*
G02*
X122400000Y-108771738I0J-271738D01*
G01*
X122400000Y-109728262D01*
G75*
G02*
X122128262Y-110000000I-271738J0D01*
G01*
X121421738Y-110000000D01*
G75*
G02*
X121150000Y-109728262I0J271738D01*
G01*
G37*
G36*
G01*
X119100000Y-109728262D02*
X119100000Y-108771738D01*
G75*
G02*
X119371738Y-108500000I271738J0D01*
G01*
X120078262Y-108500000D01*
G75*
G02*
X120350000Y-108771738I0J-271738D01*
G01*
X120350000Y-109728262D01*
G75*
G02*
X120078262Y-110000000I-271738J0D01*
G01*
X119371738Y-110000000D01*
G75*
G02*
X119100000Y-109728262I0J271738D01*
G01*
G37*
%TD*%
%TO.C,U1*%
G36*
G01*
X119475000Y-98320000D02*
X120125000Y-98320000D01*
G75*
G02*
X120175000Y-98370000I0J-50000D01*
G01*
X120175000Y-99930000D01*
G75*
G02*
X120125000Y-99980000I-50000J0D01*
G01*
X119475000Y-99980000D01*
G75*
G02*
X119425000Y-99930000I0J50000D01*
G01*
X119425000Y-98370000D01*
G75*
G02*
X119475000Y-98320000I50000J0D01*
G01*
G37*
G36*
G01*
X120425000Y-98320000D02*
X121075000Y-98320000D01*
G75*
G02*
X121125000Y-98370000I0J-50000D01*
G01*
X121125000Y-99930000D01*
G75*
G02*
X121075000Y-99980000I-50000J0D01*
G01*
X120425000Y-99980000D01*
G75*
G02*
X120375000Y-99930000I0J50000D01*
G01*
X120375000Y-98370000D01*
G75*
G02*
X120425000Y-98320000I50000J0D01*
G01*
G37*
G36*
G01*
X121375000Y-98320000D02*
X122025000Y-98320000D01*
G75*
G02*
X122075000Y-98370000I0J-50000D01*
G01*
X122075000Y-99930000D01*
G75*
G02*
X122025000Y-99980000I-50000J0D01*
G01*
X121375000Y-99980000D01*
G75*
G02*
X121325000Y-99930000I0J50000D01*
G01*
X121325000Y-98370000D01*
G75*
G02*
X121375000Y-98320000I50000J0D01*
G01*
G37*
G36*
G01*
X121375000Y-101020000D02*
X122025000Y-101020000D01*
G75*
G02*
X122075000Y-101070000I0J-50000D01*
G01*
X122075000Y-102630000D01*
G75*
G02*
X122025000Y-102680000I-50000J0D01*
G01*
X121375000Y-102680000D01*
G75*
G02*
X121325000Y-102630000I0J50000D01*
G01*
X121325000Y-101070000D01*
G75*
G02*
X121375000Y-101020000I50000J0D01*
G01*
G37*
G36*
G01*
X119475000Y-101020000D02*
X120125000Y-101020000D01*
G75*
G02*
X120175000Y-101070000I0J-50000D01*
G01*
X120175000Y-102630000D01*
G75*
G02*
X120125000Y-102680000I-50000J0D01*
G01*
X119475000Y-102680000D01*
G75*
G02*
X119425000Y-102630000I0J50000D01*
G01*
X119425000Y-101070000D01*
G75*
G02*
X119475000Y-101020000I50000J0D01*
G01*
G37*
%TD*%
%TO.C,U2*%
G36*
G01*
X122025000Y-91880000D02*
X121375000Y-91880000D01*
G75*
G02*
X121325000Y-91830000I0J50000D01*
G01*
X121325000Y-90270000D01*
G75*
G02*
X121375000Y-90220000I50000J0D01*
G01*
X122025000Y-90220000D01*
G75*
G02*
X122075000Y-90270000I0J-50000D01*
G01*
X122075000Y-91830000D01*
G75*
G02*
X122025000Y-91880000I-50000J0D01*
G01*
G37*
G36*
G01*
X120125000Y-91880000D02*
X119475000Y-91880000D01*
G75*
G02*
X119425000Y-91830000I0J50000D01*
G01*
X119425000Y-90270000D01*
G75*
G02*
X119475000Y-90220000I50000J0D01*
G01*
X120125000Y-90220000D01*
G75*
G02*
X120175000Y-90270000I0J-50000D01*
G01*
X120175000Y-91830000D01*
G75*
G02*
X120125000Y-91880000I-50000J0D01*
G01*
G37*
G36*
G01*
X120125000Y-94580000D02*
X119475000Y-94580000D01*
G75*
G02*
X119425000Y-94530000I0J50000D01*
G01*
X119425000Y-92970000D01*
G75*
G02*
X119475000Y-92920000I50000J0D01*
G01*
X120125000Y-92920000D01*
G75*
G02*
X120175000Y-92970000I0J-50000D01*
G01*
X120175000Y-94530000D01*
G75*
G02*
X120125000Y-94580000I-50000J0D01*
G01*
G37*
G36*
G01*
X121075000Y-94580000D02*
X120425000Y-94580000D01*
G75*
G02*
X120375000Y-94530000I0J50000D01*
G01*
X120375000Y-92970000D01*
G75*
G02*
X120425000Y-92920000I50000J0D01*
G01*
X121075000Y-92920000D01*
G75*
G02*
X121125000Y-92970000I0J-50000D01*
G01*
X121125000Y-94530000D01*
G75*
G02*
X121075000Y-94580000I-50000J0D01*
G01*
G37*
G36*
G01*
X122025000Y-94580000D02*
X121375000Y-94580000D01*
G75*
G02*
X121325000Y-94530000I0J50000D01*
G01*
X121325000Y-92970000D01*
G75*
G02*
X121375000Y-92920000I50000J0D01*
G01*
X122025000Y-92920000D01*
G75*
G02*
X122075000Y-92970000I0J-50000D01*
G01*
X122075000Y-94530000D01*
G75*
G02*
X122025000Y-94580000I-50000J0D01*
G01*
G37*
%TD*%
M02*
