  0
SECTION
  2
BLOCKS
  0
ENDSEC
  0
SECTION
  2
ENTITIES
  0
LINE
  8
0
 10
6.5
 20
1.7
 11
34.5
 21
1.7
  0
LINE
  8
0
 10
34.5
 20
1.7
 11
34.5
 21
54.7
  0
LINE
  8
0
 10
34.5
 20
54.7
 11
6.5
 21
54.7
  0
LINE
  8
0
 10
6.5
 20
54.7
 11
6.5
 21
1.7
  0
LINE
  8
0
 10
7.5
 20
20.7
 11
7.5
 21
35.7
  0
LINE
  8
0
 10
7.5
 20
35.7
 11
12.5
 21
35.7
  0
LINE
  8
0
 10
12.5
 20
35.7
 11
12.5
 21
20.7
  0
LINE
  8
0
 10
12.5
 20
20.7
 11
7.5
 21
20.7
  0
LINE
  8
0
 10
8.25
 20
4.39999
 11
8.39644
 21
4.75354
  0
LINE
  8
0
 10
8.39644
 20
4.75354
 11
8.75
 21
4.89999
  0
LINE
  8
0
 10
8.75
 20
4.89999
 11
9.10355
 21
4.75354
  0
LINE
  8
0
 10
9.10355
 20
4.75354
 11
9.25
 21
4.39999
  0
LINE
  8
0
 10
9.25
 20
4.39999
 11
9.10355
 21
4.04643
  0
LINE
  8
0
 10
9.10355
 20
4.04643
 11
8.75
 21
3.89999
  0
LINE
  8
0
 10
8.75
 20
3.89999
 11
8.39644
 21
4.04643
  0
LINE
  8
0
 10
8.39644
 20
4.04643
 11
8.25
 21
4.39999
  0
LINE
  8
0
 10
8.25
 20
52
 11
8.39644
 21
52.3535
  0
LINE
  8
0
 10
8.39644
 20
52.3535
 11
8.75
 21
52.5
  0
LINE
  8
0
 10
8.75
 20
52.5
 11
9.10355
 21
52.3535
  0
LINE
  8
0
 10
9.10355
 20
52.3535
 11
9.25
 21
52
  0
LINE
  8
0
 10
9.25
 20
52
 11
9.10355
 21
51.6464
  0
LINE
  8
0
 10
9.10355
 20
51.6464
 11
8.75
 21
51.5
  0
LINE
  8
0
 10
8.75
 20
51.5
 11
8.39644
 21
51.6464
  0
LINE
  8
0
 10
8.39644
 20
51.6464
 11
8.25
 21
52
  0
LINE
  8
0
 10
24.5
 20
20.7
 11
24.5
 21
35.7
  0
LINE
  8
0
 10
24.5
 20
35.7
 11
29.5
 21
35.7
  0
LINE
  8
0
 10
29.5
 20
35.7
 11
29.5
 21
20.7
  0
LINE
  8
0
 10
29.5
 20
20.7
 11
24.5
 21
20.7
  0
LINE
  8
0
 10
31.75
 20
4.39999
 11
31.8964
 21
4.75354
  0
LINE
  8
0
 10
31.8964
 20
4.75354
 11
32.25
 21
4.89999
  0
LINE
  8
0
 10
32.25
 20
4.89999
 11
32.6035
 21
4.75354
  0
LINE
  8
0
 10
32.6035
 20
4.75354
 11
32.75
 21
4.39999
  0
LINE
  8
0
 10
32.75
 20
4.39999
 11
32.6035
 21
4.04643
  0
LINE
  8
0
 10
32.6035
 20
4.04643
 11
32.25
 21
3.89999
  0
LINE
  8
0
 10
32.25
 20
3.89999
 11
31.8964
 21
4.04643
  0
LINE
  8
0
 10
31.8964
 20
4.04643
 11
31.75
 21
4.39999
  0
LINE
  8
0
 10
31.75
 20
52
 11
31.8964
 21
52.3535
  0
LINE
  8
0
 10
31.8964
 20
52.3535
 11
32.25
 21
52.5
  0
LINE
  8
0
 10
32.25
 20
52.5
 11
32.6035
 21
52.3535
  0
LINE
  8
0
 10
32.6035
 20
52.3535
 11
32.75
 21
52
  0
LINE
  8
0
 10
32.75
 20
52
 11
32.6035
 21
51.6464
  0
LINE
  8
0
 10
32.6035
 20
51.6464
 11
32.25
 21
51.5
  0
LINE
  8
0
 10
32.25
 20
51.5
 11
31.8964
 21
51.6464
  0
LINE
  8
0
 10
31.8964
 20
51.6464
 11
31.75
 21
52
  0
ENDSEC
  0
SECTION
  2
OBJECTS
  0
DICTIONARY
  0
ENDSEC
  0
EOF
