  0
SECTION
  2
BLOCKS
  0
ENDSEC
  0
SECTION
  2
ENTITIES
  0
LINE
  8
0
 10
-6.62158
 20
-0.3
 11
6
 21
-0.3
  0
LINE
  8
0
 10
6
 20
-0.3
 11
6
 21
1.45
  0
LINE
  8
0
 10
6
 20
1.45
 11
4.5
 21
1.45
  0
LINE
  8
0
 10
4.5
 20
1.45
 11
4.5
 21
3.1
  0
LINE
  8
0
 10
4.5
 20
3.1
 11
4.46582
 21
3.49071
  0
LINE
  8
0
 10
4.46582
 20
3.49071
 11
4.36431
 21
3.86954
  0
LINE
  8
0
 10
4.36431
 20
3.86954
 11
4.19856
 21
4.225
  0
LINE
  8
0
 10
4.19856
 20
4.225
 11
3.9736
 21
4.54627
  0
LINE
  8
0
 10
3.9736
 20
4.54627
 11
3.69627
 21
4.8236
  0
LINE
  8
0
 10
3.69627
 20
4.8236
 11
3.375
 21
5.04856
  0
LINE
  8
0
 10
3.375
 20
5.04856
 11
3.01954
 21
5.21431
  0
LINE
  8
0
 10
3.01954
 20
5.21431
 11
2.64071
 21
5.31582
  0
LINE
  8
0
 10
2.64071
 20
5.31582
 11
2.25
 21
5.35
  0
LINE
  8
0
 10
2.25
 20
5.35
 11
1.85929
 21
5.31582
  0
LINE
  8
0
 10
1.85929
 20
5.31582
 11
1.48045
 21
5.21431
  0
LINE
  8
0
 10
1.48045
 20
5.21431
 11
1.125
 21
5.04856
  0
LINE
  8
0
 10
1.125
 20
5.04856
 11
0.803727
 21
4.8236
  0
LINE
  8
0
 10
0.803727
 20
4.8236
 11
0.5264
 21
4.54627
  0
LINE
  8
0
 10
0.5264
 20
4.54627
 11
0.301442
 21
4.225
  0
LINE
  8
0
 10
0.301442
 20
4.225
 11
0.135691
 21
3.86954
  0
LINE
  8
0
 10
0.135691
 20
3.86954
 11
0.0341825
 21
3.49071
  0
LINE
  8
0
 10
0.0341825
 20
3.49071
 11
0
 21
3.1
  0
LINE
  8
0
 10
0
 20
3.1
 11
0
 21
1.45
  0
LINE
  8
0
 10
0
 20
1.45
 11
-4
 21
1.45
  0
LINE
  8
0
 10
-4
 20
1.45
 11
-4
 21
51.55
  0
LINE
  8
0
 10
-4
 20
51.55
 11
0
 21
51.55
  0
LINE
  8
0
 10
0
 20
51.55
 11
0
 21
49.9
  0
LINE
  8
0
 10
0
 20
49.9
 11
0.0341835
 21
49.5093
  0
LINE
  8
0
 10
0.0341835
 20
49.5093
 11
0.135692
 21
49.1305
  0
LINE
  8
0
 10
0.135692
 20
49.1305
 11
0.301443
 21
48.775
  0
LINE
  8
0
 10
0.301443
 20
48.775
 11
0.526401
 21
48.4537
  0
LINE
  8
0
 10
0.526401
 20
48.4537
 11
0.803728
 21
48.1764
  0
LINE
  8
0
 10
0.803728
 20
48.1764
 11
1.125
 21
47.9514
  0
LINE
  8
0
 10
1.125
 20
47.9514
 11
1.48046
 21
47.7857
  0
LINE
  8
0
 10
1.48046
 20
47.7857
 11
1.85929
 21
47.6842
  0
LINE
  8
0
 10
1.85929
 20
47.6842
 11
2.25
 21
47.65
  0
LINE
  8
0
 10
2.25
 20
47.65
 11
2.64071
 21
47.6842
  0
LINE
  8
0
 10
2.64071
 20
47.6842
 11
3.01955
 21
47.7857
  0
LINE
  8
0
 10
3.01955
 20
47.7857
 11
3.375
 21
47.9514
  0
LINE
  8
0
 10
3.375
 20
47.9514
 11
3.69627
 21
48.1764
  0
LINE
  8
0
 10
3.69627
 20
48.1764
 11
3.9736
 21
48.4537
  0
LINE
  8
0
 10
3.9736
 20
48.4537
 11
4.19856
 21
48.775
  0
LINE
  8
0
 10
4.19856
 20
48.775
 11
4.36431
 21
49.1305
  0
LINE
  8
0
 10
4.36431
 20
49.1305
 11
4.46582
 21
49.5093
  0
LINE
  8
0
 10
4.46582
 20
49.5093
 11
4.5
 21
49.9
  0
LINE
  8
0
 10
4.5
 20
49.9
 11
4.5
 21
51.55
  0
LINE
  8
0
 10
4.5
 20
51.55
 11
25.5
 21
51.55
  0
LINE
  8
0
 10
25.5
 20
51.55
 11
25.5
 21
49.9
  0
LINE
  8
0
 10
25.5
 20
49.9
 11
25.5342
 21
49.5093
  0
LINE
  8
0
 10
25.5342
 20
49.5093
 11
25.6357
 21
49.1305
  0
LINE
  8
0
 10
25.6357
 20
49.1305
 11
25.8014
 21
48.775
  0
LINE
  8
0
 10
25.8014
 20
48.775
 11
26.0264
 21
48.4537
  0
LINE
  8
0
 10
26.0264
 20
48.4537
 11
26.3037
 21
48.1764
  0
LINE
  8
0
 10
26.3037
 20
48.1764
 11
26.625
 21
47.9514
  0
LINE
  8
0
 10
26.625
 20
47.9514
 11
26.9805
 21
47.7857
  0
LINE
  8
0
 10
26.9805
 20
47.7857
 11
27.3593
 21
47.6842
  0
LINE
  8
0
 10
27.3593
 20
47.6842
 11
27.75
 21
47.65
  0
LINE
  8
0
 10
27.75
 20
47.65
 11
28.1407
 21
47.6842
  0
LINE
  8
0
 10
28.1407
 20
47.6842
 11
28.5195
 21
47.7857
  0
LINE
  8
0
 10
28.5195
 20
47.7857
 11
28.875
 21
47.9514
  0
LINE
  8
0
 10
28.875
 20
47.9514
 11
29.1963
 21
48.1764
  0
LINE
  8
0
 10
29.1963
 20
48.1764
 11
29.4736
 21
48.4537
  0
LINE
  8
0
 10
29.4736
 20
48.4537
 11
29.6986
 21
48.775
  0
LINE
  8
0
 10
29.6986
 20
48.775
 11
29.8643
 21
49.1305
  0
LINE
  8
0
 10
29.8643
 20
49.1305
 11
29.9658
 21
49.5093
  0
LINE
  8
0
 10
29.9658
 20
49.5093
 11
30
 21
49.9
  0
LINE
  8
0
 10
30
 20
49.9
 11
30
 21
51.55
  0
LINE
  8
0
 10
30
 20
51.55
 11
35.65
 21
51.55
  0
LINE
  8
0
 10
35.65
 20
51.55
 11
35.65
 21
35
  0
LINE
  8
0
 10
35.65
 20
35
 11
36.7716
 21
35
  0
LINE
  8
0
 10
36.7716
 20
35
 11
36.7716
 21
53.3
  0
LINE
  8
0
 10
36.7716
 20
53.3
 11
-6.62158
 21
53.3
  0
LINE
  8
0
 10
-6.62158
 20
53.3
 11
-6.62158
 21
-0.3
  0
LINE
  8
0
 10
1.2
 20
49.9
 11
1.2709
 21
50.2793
  0
LINE
  8
0
 10
1.2709
 20
50.2793
 11
1.47404
 21
50.6074
  0
LINE
  8
0
 10
1.47404
 20
50.6074
 11
1.78197
 21
50.8399
  0
LINE
  8
0
 10
1.78197
 20
50.8399
 11
2.15312
 21
50.9455
  0
LINE
  8
0
 10
2.15312
 20
50.9455
 11
2.53735
 21
50.9099
  0
LINE
  8
0
 10
2.53735
 20
50.9099
 11
2.88277
 21
50.7379
  0
LINE
  8
0
 10
2.88277
 20
50.7379
 11
3.14273
 21
50.4528
  0
LINE
  8
0
 10
3.14273
 20
50.4528
 11
3.28212
 21
50.0929
  0
LINE
  8
0
 10
3.28212
 20
50.0929
 11
3.28212
 21
49.7071
  0
LINE
  8
0
 10
3.28212
 20
49.7071
 11
3.14273
 21
49.3472
  0
LINE
  8
0
 10
3.14273
 20
49.3472
 11
2.88277
 21
49.0621
  0
LINE
  8
0
 10
2.88277
 20
49.0621
 11
2.53735
 21
48.8901
  0
LINE
  8
0
 10
2.53735
 20
48.8901
 11
2.15312
 21
48.8545
  0
LINE
  8
0
 10
2.15312
 20
48.8545
 11
1.78197
 21
48.9601
  0
LINE
  8
0
 10
1.78197
 20
48.9601
 11
1.47404
 21
49.1926
  0
LINE
  8
0
 10
1.47404
 20
49.1926
 11
1.2709
 21
49.5207
  0
LINE
  8
0
 10
1.2709
 20
49.5207
 11
1.2
 21
49.9
  0
LINE
  8
0
 10
1.21788
 20
2.90706
 11
1.21788
 21
3.29294
  0
LINE
  8
0
 10
1.21788
 20
3.29294
 11
1.35727
 21
3.65275
  0
LINE
  8
0
 10
1.35727
 20
3.65275
 11
1.61723
 21
3.93792
  0
LINE
  8
0
 10
1.61723
 20
3.93792
 11
1.96265
 21
4.10992
  0
LINE
  8
0
 10
1.96265
 20
4.10992
 11
2.34688
 21
4.14552
  0
LINE
  8
0
 10
2.34688
 20
4.14552
 11
2.71803
 21
4.03992
  0
LINE
  8
0
 10
2.71803
 20
4.03992
 11
3.02596
 21
3.80738
  0
LINE
  8
0
 10
3.02596
 20
3.80738
 11
3.2291
 21
3.4793
  0
LINE
  8
0
 10
3.2291
 20
3.4793
 11
3.3
 21
3.1
  0
LINE
  8
0
 10
3.3
 20
3.1
 11
3.2291
 21
2.7207
  0
LINE
  8
0
 10
3.2291
 20
2.7207
 11
3.02596
 21
2.39262
  0
LINE
  8
0
 10
3.02596
 20
2.39262
 11
2.71803
 21
2.16008
  0
LINE
  8
0
 10
2.71803
 20
2.16008
 11
2.34688
 21
2.05448
  0
LINE
  8
0
 10
2.34688
 20
2.05448
 11
1.96265
 21
2.09008
  0
LINE
  8
0
 10
1.96265
 20
2.09008
 11
1.61723
 21
2.26208
  0
LINE
  8
0
 10
1.61723
 20
2.26208
 11
1.35727
 21
2.54725
  0
LINE
  8
0
 10
1.35727
 20
2.54725
 11
1.21788
 21
2.90706
  0
LINE
  8
0
 10
26.7
 20
49.9
 11
26.7709
 21
50.2793
  0
LINE
  8
0
 10
26.7709
 20
50.2793
 11
26.974
 21
50.6074
  0
LINE
  8
0
 10
26.974
 20
50.6074
 11
27.282
 21
50.8399
  0
LINE
  8
0
 10
27.282
 20
50.8399
 11
27.6531
 21
50.9455
  0
LINE
  8
0
 10
27.6531
 20
50.9455
 11
28.0373
 21
50.9099
  0
LINE
  8
0
 10
28.0373
 20
50.9099
 11
28.3828
 21
50.7379
  0
LINE
  8
0
 10
28.3828
 20
50.7379
 11
28.6427
 21
50.4528
  0
LINE
  8
0
 10
28.6427
 20
50.4528
 11
28.7821
 21
50.0929
  0
LINE
  8
0
 10
28.7821
 20
50.0929
 11
28.7821
 21
49.7071
  0
LINE
  8
0
 10
28.7821
 20
49.7071
 11
28.6427
 21
49.3472
  0
LINE
  8
0
 10
28.6427
 20
49.3472
 11
28.3828
 21
49.0621
  0
LINE
  8
0
 10
28.3828
 20
49.0621
 11
28.0373
 21
48.8901
  0
LINE
  8
0
 10
28.0373
 20
48.8901
 11
27.6531
 21
48.8545
  0
LINE
  8
0
 10
27.6531
 20
48.8545
 11
27.282
 21
48.9601
  0
LINE
  8
0
 10
27.282
 20
48.9601
 11
26.974
 21
49.1926
  0
LINE
  8
0
 10
26.974
 20
49.1926
 11
26.7709
 21
49.5207
  0
LINE
  8
0
 10
26.7709
 20
49.5207
 11
26.7
 21
49.9
  0
LINE
  8
0
 10
15.5
 20
-0.3
 11
36.7716
 21
-0.3
  0
LINE
  8
0
 10
36.7716
 20
-0.3
 11
36.7716
 21
18
  0
LINE
  8
0
 10
36.7716
 20
18
 11
35.65
 21
18
  0
LINE
  8
0
 10
35.65
 20
18
 11
35.65
 21
1.45
  0
LINE
  8
0
 10
35.65
 20
1.45
 11
30
 21
1.45
  0
LINE
  8
0
 10
30
 20
1.45
 11
30
 21
3.1
  0
LINE
  8
0
 10
30
 20
3.1
 11
29.9658
 21
3.49071
  0
LINE
  8
0
 10
29.9658
 20
3.49071
 11
29.8643
 21
3.86954
  0
LINE
  8
0
 10
29.8643
 20
3.86954
 11
29.6986
 21
4.225
  0
LINE
  8
0
 10
29.6986
 20
4.225
 11
29.4736
 21
4.54627
  0
LINE
  8
0
 10
29.4736
 20
4.54627
 11
29.1963
 21
4.8236
  0
LINE
  8
0
 10
29.1963
 20
4.8236
 11
28.875
 21
5.04856
  0
LINE
  8
0
 10
28.875
 20
5.04856
 11
28.5195
 21
5.21431
  0
LINE
  8
0
 10
28.5195
 20
5.21431
 11
28.1407
 21
5.31582
  0
LINE
  8
0
 10
28.1407
 20
5.31582
 11
27.75
 21
5.35
  0
LINE
  8
0
 10
27.75
 20
5.35
 11
27.3593
 21
5.31582
  0
LINE
  8
0
 10
27.3593
 20
5.31582
 11
26.9805
 21
5.21431
  0
LINE
  8
0
 10
26.9805
 20
5.21431
 11
26.625
 21
5.04856
  0
LINE
  8
0
 10
26.625
 20
5.04856
 11
26.3037
 21
4.8236
  0
LINE
  8
0
 10
26.3037
 20
4.8236
 11
26.0264
 21
4.54627
  0
LINE
  8
0
 10
26.0264
 20
4.54627
 11
25.8014
 21
4.225
  0
LINE
  8
0
 10
25.8014
 20
4.225
 11
25.6357
 21
3.86954
  0
LINE
  8
0
 10
25.6357
 20
3.86954
 11
25.5342
 21
3.49071
  0
LINE
  8
0
 10
25.5342
 20
3.49071
 11
25.5
 21
3.1
  0
LINE
  8
0
 10
25.5
 20
3.1
 11
25.5
 21
1.45
  0
LINE
  8
0
 10
25.5
 20
1.45
 11
15.5
 21
1.45
  0
LINE
  8
0
 10
15.5
 20
1.45
 11
15.5
 21
-0.3
  0
LINE
  8
0
 10
26.7179
 20
2.90706
 11
26.7179
 21
3.29294
  0
LINE
  8
0
 10
26.7179
 20
3.29294
 11
26.8573
 21
3.65275
  0
LINE
  8
0
 10
26.8573
 20
3.65275
 11
27.1172
 21
3.93792
  0
LINE
  8
0
 10
27.1172
 20
3.93792
 11
27.4627
 21
4.10992
  0
LINE
  8
0
 10
27.4627
 20
4.10992
 11
27.8469
 21
4.14552
  0
LINE
  8
0
 10
27.8469
 20
4.14552
 11
28.218
 21
4.03992
  0
LINE
  8
0
 10
28.218
 20
4.03992
 11
28.526
 21
3.80738
  0
LINE
  8
0
 10
28.526
 20
3.80738
 11
28.7291
 21
3.4793
  0
LINE
  8
0
 10
28.7291
 20
3.4793
 11
28.8
 21
3.1
  0
LINE
  8
0
 10
28.8
 20
3.1
 11
28.7291
 21
2.7207
  0
LINE
  8
0
 10
28.7291
 20
2.7207
 11
28.526
 21
2.39262
  0
LINE
  8
0
 10
28.526
 20
2.39262
 11
28.218
 21
2.16008
  0
LINE
  8
0
 10
28.218
 20
2.16008
 11
27.8469
 21
2.05448
  0
LINE
  8
0
 10
27.8469
 20
2.05448
 11
27.4627
 21
2.09008
  0
LINE
  8
0
 10
27.4627
 20
2.09008
 11
27.1172
 21
2.26208
  0
LINE
  8
0
 10
27.1172
 20
2.26208
 11
26.8573
 21
2.54725
  0
LINE
  8
0
 10
26.8573
 20
2.54725
 11
26.7179
 21
2.90706
  0
ENDSEC
  0
SECTION
  2
OBJECTS
  0
DICTIONARY
  0
ENDSEC
  0
EOF
