  0
SECTION
  2
BLOCKS
  0
ENDSEC
  0
SECTION
  2
ENTITIES
  0
LINE
  8
0
 10
0
 20
-3.05176e-06
 11
30
 21
-3.05176e-06
  0
LINE
  8
0
 10
30
 20
-3.05176e-06
 11
30
 21
53
  0
LINE
  8
0
 10
30
 20
53
 11
0
 21
53
  0
LINE
  8
0
 10
0
 20
53
 11
0
 21
-3.05176e-06
  0
LINE
  8
0
 10
1.75
 20
3.09999
 11
1.89644
 21
3.45355
  0
LINE
  8
0
 10
1.89644
 20
3.45355
 11
2.25
 21
3.59999
  0
LINE
  8
0
 10
2.25
 20
3.59999
 11
2.60355
 21
3.45355
  0
LINE
  8
0
 10
2.60355
 20
3.45355
 11
2.75
 21
3.09999
  0
LINE
  8
0
 10
2.75
 20
3.09999
 11
2.60355
 21
2.74644
  0
LINE
  8
0
 10
2.60355
 20
2.74644
 11
2.25
 21
2.59999
  0
LINE
  8
0
 10
2.25
 20
2.59999
 11
1.89644
 21
2.74644
  0
LINE
  8
0
 10
1.89644
 20
2.74644
 11
1.75
 21
3.09999
  0
LINE
  8
0
 10
1.75
 20
49.9
 11
1.89644
 21
50.2536
  0
LINE
  8
0
 10
1.89644
 20
50.2536
 11
2.25
 21
50.4
  0
LINE
  8
0
 10
2.25
 20
50.4
 11
2.60355
 21
50.2536
  0
LINE
  8
0
 10
2.60355
 20
50.2536
 11
2.75
 21
49.9
  0
LINE
  8
0
 10
2.75
 20
49.9
 11
2.60355
 21
49.5464
  0
LINE
  8
0
 10
2.60355
 20
49.5464
 11
2.25
 21
49.4
  0
LINE
  8
0
 10
2.25
 20
49.4
 11
1.89644
 21
49.5464
  0
LINE
  8
0
 10
1.89644
 20
49.5464
 11
1.75
 21
49.9
  0
LINE
  8
0
 10
2.5
 20
19
 11
2.5
 21
34
  0
LINE
  8
0
 10
2.5
 20
34
 11
7.5
 21
34
  0
LINE
  8
0
 10
7.5
 20
34
 11
7.5
 21
19
  0
LINE
  8
0
 10
7.5
 20
19
 11
2.5
 21
19
  0
LINE
  8
0
 10
19.5
 20
19
 11
19.5
 21
34
  0
LINE
  8
0
 10
19.5
 20
34
 11
24.5
 21
34
  0
LINE
  8
0
 10
24.5
 20
34
 11
24.5
 21
19
  0
LINE
  8
0
 10
24.5
 20
19
 11
19.5
 21
19
  0
LINE
  8
0
 10
27.25
 20
3.09999
 11
27.3964
 21
3.45355
  0
LINE
  8
0
 10
27.3964
 20
3.45355
 11
27.75
 21
3.59999
  0
LINE
  8
0
 10
27.75
 20
3.59999
 11
28.1035
 21
3.45355
  0
LINE
  8
0
 10
28.1035
 20
3.45355
 11
28.25
 21
3.09999
  0
LINE
  8
0
 10
28.25
 20
3.09999
 11
28.1035
 21
2.74644
  0
LINE
  8
0
 10
28.1035
 20
2.74644
 11
27.75
 21
2.59999
  0
LINE
  8
0
 10
27.75
 20
2.59999
 11
27.3964
 21
2.74644
  0
LINE
  8
0
 10
27.3964
 20
2.74644
 11
27.25
 21
3.09999
  0
LINE
  8
0
 10
27.25
 20
49.9
 11
27.3964
 21
50.2536
  0
LINE
  8
0
 10
27.3964
 20
50.2536
 11
27.75
 21
50.4
  0
LINE
  8
0
 10
27.75
 20
50.4
 11
28.1035
 21
50.2536
  0
LINE
  8
0
 10
28.1035
 20
50.2536
 11
28.25
 21
49.9
  0
LINE
  8
0
 10
28.25
 20
49.9
 11
28.1035
 21
49.5464
  0
LINE
  8
0
 10
28.1035
 20
49.5464
 11
27.75
 21
49.4
  0
LINE
  8
0
 10
27.75
 20
49.4
 11
27.3964
 21
49.5464
  0
LINE
  8
0
 10
27.3964
 20
49.5464
 11
27.25
 21
49.9
  0
ENDSEC
  0
SECTION
  2
OBJECTS
  0
DICTIONARY
  0
ENDSEC
  0
EOF
