  0
SECTION
  2
BLOCKS
  0
ENDSEC
  0
SECTION
  2
ENTITIES
  0
LINE
  8
0
 10
-0.692962
 20
1.25
 11
15.75
 21
1.25
  0
LINE
  8
0
 10
15.75
 20
1.25
 11
15.75
 21
2.75
  0
LINE
  8
0
 10
15.75
 20
2.75
 11
11
 21
2.75
  0
LINE
  8
0
 10
11
 20
2.75
 11
11
 21
4.4
  0
LINE
  8
0
 10
11
 20
4.4
 11
10.9658
 21
4.79071
  0
LINE
  8
0
 10
10.9658
 20
4.79071
 11
10.8643
 21
5.16954
  0
LINE
  8
0
 10
10.8643
 20
5.16954
 11
10.6986
 21
5.525
  0
LINE
  8
0
 10
10.6986
 20
5.525
 11
10.4736
 21
5.84627
  0
LINE
  8
0
 10
10.4736
 20
5.84627
 11
10.1963
 21
6.1236
  0
LINE
  8
0
 10
10.1963
 20
6.1236
 11
9.875
 21
6.34856
  0
LINE
  8
0
 10
9.875
 20
6.34856
 11
9.51954
 21
6.51431
  0
LINE
  8
0
 10
9.51954
 20
6.51431
 11
9.14071
 21
6.61582
  0
LINE
  8
0
 10
9.14071
 20
6.61582
 11
8.75
 21
6.65
  0
LINE
  8
0
 10
8.75
 20
6.65
 11
8.35929
 21
6.61582
  0
LINE
  8
0
 10
8.35929
 20
6.61582
 11
7.98045
 21
6.51431
  0
LINE
  8
0
 10
7.98045
 20
6.51431
 11
7.625
 21
6.34856
  0
LINE
  8
0
 10
7.625
 20
6.34856
 11
7.30373
 21
6.1236
  0
LINE
  8
0
 10
7.30373
 20
6.1236
 11
7.0264
 21
5.84627
  0
LINE
  8
0
 10
7.0264
 20
5.84627
 11
6.80144
 21
5.525
  0
LINE
  8
0
 10
6.80144
 20
5.525
 11
6.63569
 21
5.16954
  0
LINE
  8
0
 10
6.63569
 20
5.16954
 11
6.53418
 21
4.79071
  0
LINE
  8
0
 10
6.53418
 20
4.79071
 11
6.5
 21
4.4
  0
LINE
  8
0
 10
6.5
 20
4.4
 11
6.5
 21
2.75
  0
LINE
  8
0
 10
6.5
 20
2.75
 11
0.75
 21
2.75
  0
LINE
  8
0
 10
0.75
 20
2.75
 11
0.75
 21
53.65
  0
LINE
  8
0
 10
0.75
 20
53.65
 11
6.5
 21
53.65
  0
LINE
  8
0
 10
6.5
 20
53.65
 11
6.5
 21
52
  0
LINE
  8
0
 10
6.5
 20
52
 11
6.53418
 21
51.6093
  0
LINE
  8
0
 10
6.53418
 20
51.6093
 11
6.63569
 21
51.2305
  0
LINE
  8
0
 10
6.63569
 20
51.2305
 11
6.80144
 21
50.875
  0
LINE
  8
0
 10
6.80144
 20
50.875
 11
7.0264
 21
50.5537
  0
LINE
  8
0
 10
7.0264
 20
50.5537
 11
7.30373
 21
50.2764
  0
LINE
  8
0
 10
7.30373
 20
50.2764
 11
7.625
 21
50.0514
  0
LINE
  8
0
 10
7.625
 20
50.0514
 11
7.98046
 21
49.8857
  0
LINE
  8
0
 10
7.98046
 20
49.8857
 11
8.35929
 21
49.7842
  0
LINE
  8
0
 10
8.35929
 20
49.7842
 11
8.75
 21
49.75
  0
LINE
  8
0
 10
8.75
 20
49.75
 11
9.14071
 21
49.7842
  0
LINE
  8
0
 10
9.14071
 20
49.7842
 11
9.51955
 21
49.8857
  0
LINE
  8
0
 10
9.51955
 20
49.8857
 11
9.875
 21
50.0514
  0
LINE
  8
0
 10
9.875
 20
50.0514
 11
10.1963
 21
50.2764
  0
LINE
  8
0
 10
10.1963
 20
50.2764
 11
10.4736
 21
50.5537
  0
LINE
  8
0
 10
10.4736
 20
50.5537
 11
10.6986
 21
50.875
  0
LINE
  8
0
 10
10.6986
 20
50.875
 11
10.8643
 21
51.2305
  0
LINE
  8
0
 10
10.8643
 20
51.2305
 11
10.9658
 21
51.6093
  0
LINE
  8
0
 10
10.9658
 20
51.6093
 11
11
 21
52
  0
LINE
  8
0
 10
11
 20
52
 11
11
 21
53.65
  0
LINE
  8
0
 10
11
 20
53.65
 11
30
 21
53.65
  0
LINE
  8
0
 10
30
 20
53.65
 11
30
 21
52
  0
LINE
  8
0
 10
30
 20
52
 11
30.0342
 21
51.6093
  0
LINE
  8
0
 10
30.0342
 20
51.6093
 11
30.1357
 21
51.2305
  0
LINE
  8
0
 10
30.1357
 20
51.2305
 11
30.3014
 21
50.875
  0
LINE
  8
0
 10
30.3014
 20
50.875
 11
30.5264
 21
50.5537
  0
LINE
  8
0
 10
30.5264
 20
50.5537
 11
30.8037
 21
50.2764
  0
LINE
  8
0
 10
30.8037
 20
50.2764
 11
31.125
 21
50.0514
  0
LINE
  8
0
 10
31.125
 20
50.0514
 11
31.4805
 21
49.8857
  0
LINE
  8
0
 10
31.4805
 20
49.8857
 11
31.8593
 21
49.7842
  0
LINE
  8
0
 10
31.8593
 20
49.7842
 11
32.25
 21
49.75
  0
LINE
  8
0
 10
32.25
 20
49.75
 11
32.6407
 21
49.7842
  0
LINE
  8
0
 10
32.6407
 20
49.7842
 11
33.0195
 21
49.8857
  0
LINE
  8
0
 10
33.0195
 20
49.8857
 11
33.375
 21
50.0514
  0
LINE
  8
0
 10
33.375
 20
50.0514
 11
33.6963
 21
50.2764
  0
LINE
  8
0
 10
33.6963
 20
50.2764
 11
33.9736
 21
50.5537
  0
LINE
  8
0
 10
33.9736
 20
50.5537
 11
34.1986
 21
50.875
  0
LINE
  8
0
 10
34.1986
 20
50.875
 11
34.3643
 21
51.2305
  0
LINE
  8
0
 10
34.3643
 20
51.2305
 11
34.4658
 21
51.6093
  0
LINE
  8
0
 10
34.4658
 20
51.6093
 11
34.5
 21
52
  0
LINE
  8
0
 10
34.5
 20
52
 11
34.5
 21
53.65
  0
LINE
  8
0
 10
34.5
 20
53.65
 11
41.443
 21
53.65
  0
LINE
  8
0
 10
41.443
 20
53.65
 11
41.443
 21
55.15
  0
LINE
  8
0
 10
41.443
 20
55.15
 11
-0.692962
 21
55.15
  0
LINE
  8
0
 10
-0.692962
 20
55.15
 11
-0.692962
 21
1.25
  0
LINE
  8
0
 10
7.7
 20
52
 11
7.7709
 21
52.3793
  0
LINE
  8
0
 10
7.7709
 20
52.3793
 11
7.97404
 21
52.7074
  0
LINE
  8
0
 10
7.97404
 20
52.7074
 11
8.28197
 21
52.9399
  0
LINE
  8
0
 10
8.28197
 20
52.9399
 11
8.65312
 21
53.0455
  0
LINE
  8
0
 10
8.65312
 20
53.0455
 11
9.03735
 21
53.0099
  0
LINE
  8
0
 10
9.03735
 20
53.0099
 11
9.38277
 21
52.8379
  0
LINE
  8
0
 10
9.38277
 20
52.8379
 11
9.64273
 21
52.5528
  0
LINE
  8
0
 10
9.64273
 20
52.5528
 11
9.78212
 21
52.1929
  0
LINE
  8
0
 10
9.78212
 20
52.1929
 11
9.78212
 21
51.8071
  0
LINE
  8
0
 10
9.78212
 20
51.8071
 11
9.64273
 21
51.4472
  0
LINE
  8
0
 10
9.64273
 20
51.4472
 11
9.38277
 21
51.1621
  0
LINE
  8
0
 10
9.38277
 20
51.1621
 11
9.03735
 21
50.9901
  0
LINE
  8
0
 10
9.03735
 20
50.9901
 11
8.65312
 21
50.9545
  0
LINE
  8
0
 10
8.65312
 20
50.9545
 11
8.28197
 21
51.0601
  0
LINE
  8
0
 10
8.28197
 20
51.0601
 11
7.97404
 21
51.2926
  0
LINE
  8
0
 10
7.97404
 20
51.2926
 11
7.7709
 21
51.6207
  0
LINE
  8
0
 10
7.7709
 20
51.6207
 11
7.7
 21
52
  0
LINE
  8
0
 10
7.71788
 20
4.20706
 11
7.71788
 21
4.59294
  0
LINE
  8
0
 10
7.71788
 20
4.59294
 11
7.85727
 21
4.95275
  0
LINE
  8
0
 10
7.85727
 20
4.95275
 11
8.11723
 21
5.23792
  0
LINE
  8
0
 10
8.11723
 20
5.23792
 11
8.46265
 21
5.40992
  0
LINE
  8
0
 10
8.46265
 20
5.40992
 11
8.84688
 21
5.44552
  0
LINE
  8
0
 10
8.84688
 20
5.44552
 11
9.21803
 21
5.33992
  0
LINE
  8
0
 10
9.21803
 20
5.33992
 11
9.52596
 21
5.10738
  0
LINE
  8
0
 10
9.52596
 20
5.10738
 11
9.7291
 21
4.7793
  0
LINE
  8
0
 10
9.7291
 20
4.7793
 11
9.8
 21
4.4
  0
LINE
  8
0
 10
9.8
 20
4.4
 11
9.7291
 21
4.0207
  0
LINE
  8
0
 10
9.7291
 20
4.0207
 11
9.52596
 21
3.69262
  0
LINE
  8
0
 10
9.52596
 20
3.69262
 11
9.21803
 21
3.46008
  0
LINE
  8
0
 10
9.21803
 20
3.46008
 11
8.84688
 21
3.35448
  0
LINE
  8
0
 10
8.84688
 20
3.35448
 11
8.46265
 21
3.39008
  0
LINE
  8
0
 10
8.46265
 20
3.39008
 11
8.11723
 21
3.56208
  0
LINE
  8
0
 10
8.11723
 20
3.56208
 11
7.85727
 21
3.84725
  0
LINE
  8
0
 10
7.85727
 20
3.84725
 11
7.71788
 21
4.20706
  0
LINE
  8
0
 10
31.2
 20
52
 11
31.2709
 21
52.3793
  0
LINE
  8
0
 10
31.2709
 20
52.3793
 11
31.474
 21
52.7074
  0
LINE
  8
0
 10
31.474
 20
52.7074
 11
31.782
 21
52.9399
  0
LINE
  8
0
 10
31.782
 20
52.9399
 11
32.1531
 21
53.0455
  0
LINE
  8
0
 10
32.1531
 20
53.0455
 11
32.5373
 21
53.0099
  0
LINE
  8
0
 10
32.5373
 20
53.0099
 11
32.8828
 21
52.8379
  0
LINE
  8
0
 10
32.8828
 20
52.8379
 11
33.1427
 21
52.5528
  0
LINE
  8
0
 10
33.1427
 20
52.5528
 11
33.2821
 21
52.1929
  0
LINE
  8
0
 10
33.2821
 20
52.1929
 11
33.2821
 21
51.8071
  0
LINE
  8
0
 10
33.2821
 20
51.8071
 11
33.1427
 21
51.4472
  0
LINE
  8
0
 10
33.1427
 20
51.4472
 11
32.8828
 21
51.1621
  0
LINE
  8
0
 10
32.8828
 20
51.1621
 11
32.5373
 21
50.9901
  0
LINE
  8
0
 10
32.5373
 20
50.9901
 11
32.1531
 21
50.9545
  0
LINE
  8
0
 10
32.1531
 20
50.9545
 11
31.782
 21
51.0601
  0
LINE
  8
0
 10
31.782
 20
51.0601
 11
31.474
 21
51.2926
  0
LINE
  8
0
 10
31.474
 20
51.2926
 11
31.2709
 21
51.6207
  0
LINE
  8
0
 10
31.2709
 20
51.6207
 11
31.2
 21
52
  0
LINE
  8
0
 10
25.25
 20
1.25
 11
41.443
 21
1.25
  0
LINE
  8
0
 10
41.443
 20
1.25
 11
41.443
 21
2.75
  0
LINE
  8
0
 10
41.443
 20
2.75
 11
34.5
 21
2.75
  0
LINE
  8
0
 10
34.5
 20
2.75
 11
34.5
 21
4.4
  0
LINE
  8
0
 10
34.5
 20
4.4
 11
34.4658
 21
4.79071
  0
LINE
  8
0
 10
34.4658
 20
4.79071
 11
34.3643
 21
5.16954
  0
LINE
  8
0
 10
34.3643
 20
5.16954
 11
34.1986
 21
5.525
  0
LINE
  8
0
 10
34.1986
 20
5.525
 11
33.9736
 21
5.84627
  0
LINE
  8
0
 10
33.9736
 20
5.84627
 11
33.6963
 21
6.1236
  0
LINE
  8
0
 10
33.6963
 20
6.1236
 11
33.375
 21
6.34856
  0
LINE
  8
0
 10
33.375
 20
6.34856
 11
33.0195
 21
6.51431
  0
LINE
  8
0
 10
33.0195
 20
6.51431
 11
32.6407
 21
6.61582
  0
LINE
  8
0
 10
32.6407
 20
6.61582
 11
32.25
 21
6.65
  0
LINE
  8
0
 10
32.25
 20
6.65
 11
31.8593
 21
6.61582
  0
LINE
  8
0
 10
31.8593
 20
6.61582
 11
31.4805
 21
6.51431
  0
LINE
  8
0
 10
31.4805
 20
6.51431
 11
31.125
 21
6.34856
  0
LINE
  8
0
 10
31.125
 20
6.34856
 11
30.8037
 21
6.1236
  0
LINE
  8
0
 10
30.8037
 20
6.1236
 11
30.5264
 21
5.84627
  0
LINE
  8
0
 10
30.5264
 20
5.84627
 11
30.3014
 21
5.525
  0
LINE
  8
0
 10
30.3014
 20
5.525
 11
30.1357
 21
5.16954
  0
LINE
  8
0
 10
30.1357
 20
5.16954
 11
30.0342
 21
4.79071
  0
LINE
  8
0
 10
30.0342
 20
4.79071
 11
30
 21
4.4
  0
LINE
  8
0
 10
30
 20
4.4
 11
30
 21
2.75
  0
LINE
  8
0
 10
30
 20
2.75
 11
25.25
 21
2.75
  0
LINE
  8
0
 10
25.25
 20
2.75
 11
25.25
 21
1.25
  0
LINE
  8
0
 10
31.2179
 20
4.20706
 11
31.2179
 21
4.59294
  0
LINE
  8
0
 10
31.2179
 20
4.59294
 11
31.3573
 21
4.95275
  0
LINE
  8
0
 10
31.3573
 20
4.95275
 11
31.6172
 21
5.23792
  0
LINE
  8
0
 10
31.6172
 20
5.23792
 11
31.9627
 21
5.40992
  0
LINE
  8
0
 10
31.9627
 20
5.40992
 11
32.3469
 21
5.44552
  0
LINE
  8
0
 10
32.3469
 20
5.44552
 11
32.718
 21
5.33992
  0
LINE
  8
0
 10
32.718
 20
5.33992
 11
33.026
 21
5.10738
  0
LINE
  8
0
 10
33.026
 20
5.10738
 11
33.2291
 21
4.7793
  0
LINE
  8
0
 10
33.2291
 20
4.7793
 11
33.3
 21
4.4
  0
LINE
  8
0
 10
33.3
 20
4.4
 11
33.2291
 21
4.0207
  0
LINE
  8
0
 10
33.2291
 20
4.0207
 11
33.026
 21
3.69262
  0
LINE
  8
0
 10
33.026
 20
3.69262
 11
32.718
 21
3.46008
  0
LINE
  8
0
 10
32.718
 20
3.46008
 11
32.3469
 21
3.35448
  0
LINE
  8
0
 10
32.3469
 20
3.35448
 11
31.9627
 21
3.39008
  0
LINE
  8
0
 10
31.9627
 20
3.39008
 11
31.6172
 21
3.56208
  0
LINE
  8
0
 10
31.6172
 20
3.56208
 11
31.3573
 21
3.84725
  0
LINE
  8
0
 10
31.3573
 20
3.84725
 11
31.2179
 21
4.20706
  0
ENDSEC
  0
SECTION
  2
OBJECTS
  0
DICTIONARY
  0
ENDSEC
  0
EOF
